<svg id="Capa_1" data-name="Capa 1" xmlns="http://www.w3.org/2000/svg" width="450.39" height="450.39" viewBox="0 0 450.39 450.39"><title>SVGPlan de travail 1</title><path d="M313.92,101.37c-2.17-46.23-23.74-68-41.46-78.15-13.41-7.7-29-11.78-46.36-12.13h-1.5c-9.57,0-28.33,1.53-46.31,11.77s-39.84,32.07-42,78.5v.27c-.72,7.26-6,72,27.24,109.5,14.84,16.8,35.07,25.54,60.14,26h2.82c25-.44,45.3-9.18,60.23-26,33.27-37.51,28-102.24,27.24-109.5v-.26Zm-37.83,100.3c-12.45,14-29,21-50.53,21.15h-1c-21.59-.2-38.1-7.12-50.46-21.17-12.66-14.21-20.52-35.15-23.33-62.2a194.08,194.08,0,0,1-.46-36.25,7.1,7.1,0,0,1,.1-1c3.3-69.25,52.91-76.73,74.1-76.73h1.21c21.2.47,70.83,8.9,74,76.85l.05.35C299.85,103.3,306.75,167.16,276.09,201.67Z"/><path d="M406.53,354.36V354c0-.25,0-.51,0-.76,0-.42-.05-.89-.06-1.43v-.06c-.26-8.67-.7-23.17-5.71-36.79-5.94-16.12-16.39-26.54-32-31.85l-.21-.06-.46-.13c-41.05-10.5-74.6-33.46-76.89-35.06h0a7,7,0,0,0-4.07-1.29,7.14,7.14,0,0,0-4.11,13c1.47,1,36.63,25.62,81.22,37.09l.22.05.22.08c26.13,9.31,27.05,39.36,27.55,55.51v.15a15.1,15.1,0,0,0,.05,1.64l0,.28v.29c.09,8.71-.49,21.54-2,29.12l-.46,2.29-2,1.15c-15.65,8.89-73.63,37.9-162.59,37.9-88.51,0-146.89-29.07-162.67-38l-2-1.15-.46-2.3c-1.55-7.74-2.19-20.77-2-29.12,0-.48,0-.93,0-1.32s0-.62,0-.89v-.16c.5-16.14,1.42-46.19,27.55-55.5l.22-.08.22-.06c39.28-10.09,71.85-30.77,80.9-36.87l.38-.25a7.15,7.15,0,0,0,1.71-9.91,7.22,7.22,0,0,0-5.88-3.05,7,7,0,0,0-4.07,1.29h0c-2.3,1.61-36,24.68-77,35.1a4.45,4.45,0,0,0-.55.16c-15.53,5.33-26,15.77-31.92,31.9-5,13.62-5.45,28.08-5.71,36.72v.06c0,.79,0,1.6-.09,2.48v.09c-.19,10,.49,29.58,4.28,39.15a6.6,6.6,0,0,0,2.67,3.26l.07,0,.06,0c.64.43,65.07,42.54,174.39,42.54,104.26,0,167.58-38.22,174.45-42.58a7,7,0,0,0,2.73-3.26C406.09,383.94,406.72,364.4,406.53,354.36Z"/></svg>