<?xml version="1.0" encoding="utf-8"?>
<!-- Generator: Adobe Illustrator 22.0.1, SVG Export Plug-In . SVG Version: 6.00 Build 0)  -->
<svg version="1.1" id="Capa_1" xmlns="http://www.w3.org/2000/svg" xmlns:xlink="http://www.w3.org/1999/xlink" x="0px" y="0px"
	 viewBox="0 0 450.4 450.4" style="enable-background:new 0 0 450.4 450.4;" xml:space="preserve">
<path d="M143.7,354.3c-23.7,0-43,19.3-43,43c0,23.7,19.3,43,43,43s43-19.3,43-43c0-11.5-4.5-22.3-12.6-30.4
	C166,358.8,155.2,354.3,143.7,354.3z M165,418.6c-5.7,5.7-13.3,8.8-21.3,8.8c-16.6,0-30.1-13.5-30.1-30.1s13.5-30.1,30.1-30.1
	s30.1,13.5,30.1,30.1C173.8,405.4,170.7,413,165,418.6z"/>
<path d="M342.2,354.3c-23.7,0-43,19.3-43,43c0,23.7,19.3,43,43,43s43-19.3,43-43C385.2,373.6,365.9,354.3,342.2,354.3z M363.5,418.6
	c-5.7,5.7-13.3,8.8-21.3,8.8c-16.6,0-30.1-13.5-30.1-30.1s13.5-30.1,30.1-30.1c16.6,0,30.1,13.5,30.1,30.1
	C372.3,405.4,369.2,413,363.5,418.6z"/>
<path d="M445.9,84l0.1-0.2l0.1-0.2c0.6-1.6,0.3-3.5-0.8-4.8c-1.5-1.6-3.5-2.6-5.6-2.8L99.7,71.2l-2.9,0L96,68.4l-9.4-28.7
	C80.5,22.1,64,10.2,45.4,10h-35C6.9,10,4,12.9,4,16.5c0,3.6,2.9,6.4,6.4,6.4h35h0l0,0c13,0.3,24.5,8.7,28.8,21l0,0l0,0l66.4,200.1
	l0.5,1.5l-0.6,1.4l-5.2,11.9c-5.3,13.8-3.7,29.4,4.4,41.8c8,12.1,21.4,19.7,35.9,20.1h203.2c3.6,0,6.4-2.9,6.4-6.4s-2.9-6.4-6.4-6.4
	H175.5h0l-0.1,0c-10.3-0.3-19.8-5.6-25.2-14.4c-5.4-8.6-6.5-19-3-28.6l0-0.1l0.1-0.1l4.2-9.4l0.9-2.1l2.3-0.2l220-23
	c22.4-2.5,41-18.9,46.2-40.8L445.9,84z M372.9,216.9l-217.3,22.5l-3.2,0.3l-1-3.1L102.8,89.3L101,84l5.6,0.1l320.3,4.7l5,0.1
	l-1.2,4.9l-22.5,92.4C404.5,203.1,390.2,215.5,372.9,216.9z"/>
</svg>
