<svg id="Capa_1" data-name="Capa 1" xmlns="http://www.w3.org/2000/svg" width="442.4" height="430.3" viewBox="0 0 442.4 430.3"><defs><style>.cls-1{fill:#fff;}</style></defs><title>shopping-cart_white</title><path class="cls-1" d="M143.7,354.3a43,43,0,1,0,30.4,12.6A43.06,43.06,0,0,0,143.7,354.3ZM165,418.6a30.12,30.12,0,1,1,8.8-21.3A29.62,29.62,0,0,1,165,418.6Z" transform="translate(-4 -10)"/><path class="cls-1" d="M342.2,354.3a43,43,0,1,0,43,43A43.06,43.06,0,0,0,342.2,354.3Zm21.3,64.3a30.12,30.12,0,1,1,8.8-21.3A29.62,29.62,0,0,1,363.5,418.6Z" transform="translate(-4 -10)"/><path class="cls-1" d="M445.9,84l.1-.2.1-.2a4.9,4.9,0,0,0-.8-4.8,8.88,8.88,0,0,0-5.6-2.8l-340-4.8H96.8L96,68.4,86.6,39.7A44.15,44.15,0,0,0,45.4,10h-35A6.47,6.47,0,0,0,4,16.5a6.38,6.38,0,0,0,6.4,6.4h35a31.35,31.35,0,0,1,28.8,21h0L140.6,244l.5,1.5-.6,1.4-5.2,11.9a46.23,46.23,0,0,0,4.4,41.8,44.67,44.67,0,0,0,35.9,20.1H378.8a6.38,6.38,0,0,0,6.4-6.4,6.44,6.44,0,0,0-6.4-6.4H175.4a30.46,30.46,0,0,1-25.2-14.4,32.46,32.46,0,0,1-3-28.6v-.1l.1-.1,4.2-9.4.9-2.1,2.3-.2,220-23a53.7,53.7,0,0,0,46.2-40.8Zm-73,132.9L155.6,239.4l-3.2.3-1-3.1L102.8,89.3,101,84l5.6.1,320.3,4.7,5,.1-1.2,4.9-22.5,92.4A39.25,39.25,0,0,1,372.9,216.9Z" transform="translate(-4 -10)"/></svg>